
<svg width="679" height="673" viewBox="0 0 679 673" fill="none" xmlns="http://www.w3.org/2000/svg">
<path d="M324.136 647.708L322.697 671.965L318.924 671.742L314.645 659.767L313.952 671.447L309.52 671.183L310.96 646.926L314.583 647.141L318.808 660.014L319.555 647.436L324.136 647.708Z" fill="white"/>
<path d="M288.364 644.084L279.548 667.189L273.525 666.106L273.365 641.388L278.237 642.264L278.126 647.456L281.64 648.088L283.374 643.187L288.364 644.084ZM280.6 651.162L278.06 650.706L277.653 660.264L280.6 651.162Z" fill="white"/>
<path d="M246.257 633.862C247.711 634.306 248.846 634.935 249.664 635.75C250.482 636.564 250.976 637.583 251.146 638.806C251.311 640.048 251.159 641.538 250.69 643.278L246.099 642.597C246.384 641.596 246.543 640.767 246.577 640.108C246.591 639.443 246.496 638.933 246.291 638.578C246.067 638.217 245.744 637.972 245.323 637.843C244.788 637.68 244.388 637.756 244.124 638.073C243.841 638.384 243.638 638.74 243.515 639.142C243.223 640.098 243.208 640.972 243.468 641.762C243.723 642.572 244.14 643.431 244.72 644.34L246.194 646.704C246.846 647.718 247.335 648.788 247.661 649.912C247.962 651.049 247.899 652.316 247.472 653.713C246.871 655.683 245.829 657.006 244.347 657.683C242.858 658.379 241.11 658.42 239.102 657.806C237.858 657.427 236.928 656.913 236.311 656.264C235.674 655.61 235.27 654.88 235.097 654.074C234.9 653.282 234.851 652.483 234.951 651.677C235.026 650.884 235.159 650.141 235.35 649.446L239.935 650.25C239.744 650.945 239.611 651.552 239.535 652.073C239.435 652.607 239.449 653.04 239.578 653.372C239.7 653.723 239.982 653.966 240.422 654.1C240.9 654.246 241.315 654.154 241.667 653.822C242 653.485 242.228 653.115 242.351 652.713C242.614 651.853 242.629 651.084 242.397 650.406C242.139 649.742 241.767 649.011 241.278 648.214L239.873 645.934C239.122 644.764 238.569 643.528 238.213 642.228C237.838 640.921 237.896 639.465 238.387 637.858C238.72 636.768 239.272 635.849 240.044 635.102C240.81 634.374 241.731 633.892 242.807 633.656C243.863 633.414 245.014 633.483 246.257 633.862ZM241.303 660.047L242.19 666.184L238.862 665.167L238.362 661.564L235.935 664.274L232.607 663.257L236.77 658.663L241.303 660.047Z" fill="white"/>
<path d="M183.173 607.002L170.816 627.925L161.775 622.586L163.621 619.46L168.038 622.069L171.15 616.799L167.302 614.526L169.209 611.297L173.057 613.57L178.55 604.271L183.173 607.002Z" fill="white"/>
<path d="M150.59 585.583L135.845 604.898L131.577 601.639L146.322 582.324L150.59 585.583Z" fill="white"/>
<path d="M122.652 561.955L105.725 579.39L101.872 575.65L116.27 560.819L112.266 556.932L114.795 554.328L122.652 561.955Z" fill="white"/>
<path d="M99.9496 538.028L80.8154 553.013L77.1861 548.54L86.476 537.564L73.6891 544.231L70.1921 539.921L88.797 524.284L91.1976 527.242L78.9248 537.78L93.258 529.781L95.394 532.414L84.6347 545.008L97.5111 535.023L99.9496 538.028Z" fill="white"/>
<path d="M58.1682 474.479L36.2302 484.93L34.6046 481.517L43.0256 471.989L32.4628 477.021L30.5533 473.013L52.4913 462.562L54.0525 465.839L44.8189 475.754L56.1942 470.335L58.1682 474.479Z" fill="white"/>
<path d="M44.0715 441.402L19.5815 444.837L17.6214 439.039L39.1906 426.965L40.776 431.654L36.1756 434.065L37.3189 437.447L42.4478 436.599L44.0715 441.402ZM34.1243 438.02L33.298 435.576L24.7305 439.834L34.1243 438.02Z" fill="white"/>
<path d="M32.6939 399.592C33.007 401.08 33.0044 402.378 32.6861 403.488C32.3678 404.597 31.7142 405.521 30.7253 406.261C29.7168 407.005 28.3381 407.591 26.5891 408.021L24.9684 403.671C25.982 403.437 26.7854 403.176 27.3788 402.888C27.968 402.58 28.3687 402.25 28.5809 401.899C28.7889 401.528 28.8477 401.128 28.757 400.697C28.6417 400.149 28.3816 399.836 27.9768 399.758C27.5679 399.66 27.1579 399.654 26.7469 399.741C25.7684 399.947 24.9958 400.354 24.4293 400.964C23.8431 401.578 23.292 402.358 22.776 403.305L21.4177 405.737C20.844 406.798 20.1435 407.742 19.3163 408.57C18.4655 409.383 17.3257 409.94 15.897 410.241C13.8812 410.665 12.2192 410.391 10.9111 409.42C9.58339 408.453 8.70326 406.942 8.2707 404.887C8.00293 403.614 8.00399 402.551 8.2739 401.698C8.53968 400.824 8.98365 400.117 9.60582 399.578C10.2043 399.023 10.8805 398.594 11.6346 398.292C12.3649 397.975 13.0802 397.733 13.7807 397.565L15.2901 401.968C14.5896 402.136 13.9932 402.313 13.5009 402.498C12.9848 402.668 12.6124 402.889 12.3838 403.162C12.1355 403.439 12.0588 403.803 12.1535 404.253C12.2565 404.743 12.5382 405.061 12.9986 405.21C13.4549 405.338 13.8886 405.36 14.2996 405.273C15.1803 405.088 15.8612 404.73 16.3422 404.199C16.7996 403.653 17.2595 402.974 17.722 402.161L19.0401 399.83C19.7024 398.607 20.5172 397.526 21.4845 396.587C22.4476 395.628 23.7512 394.975 25.3951 394.629C26.5107 394.395 27.582 394.435 28.6089 394.75C29.6163 395.069 30.4831 395.643 31.2092 396.471C31.9313 397.28 32.4262 398.32 32.6939 399.592ZM7.37137 407.896L2.42545 411.635L1.70864 408.23L4.62273 406.053L1.07835 405.236L0.361542 401.83L6.39503 403.258L7.37137 407.896Z" fill="white"/>
<path d="M25.7602 331.38L1.47086 330.66L1.78201 320.165L5.41042 320.272L5.2584 325.4L11.3757 325.581L11.5082 321.113L15.2565 321.224L15.1241 325.692L25.9193 326.012L25.7602 331.38Z" fill="white"/>
<path d="M28.7865 292.505L4.75287 288.917L5.54573 283.606L29.5794 287.194L28.7865 292.505Z" fill="white"/>
<path d="M35.99 256.631L12.5493 250.226L13.9648 245.045L33.9038 250.494L35.3746 245.111L38.8762 246.068L35.99 256.631Z" fill="white"/>
<path d="M45.9831 225.198L23.6223 215.676L25.7871 210.339L39.8847 213.175L27.873 205.195L29.9588 200.052L52.6352 208.796L51.2033 212.326L36.0496 206.666L49.9743 215.357L48.7003 218.498L32.477 215.156L47.4375 221.612L45.9831 225.198Z" fill="white"/>
<path d="M81.4635 157.928L61.7201 143.761L63.9237 140.69L76.3331 143.465L66.827 136.644L69.4154 133.036L89.1588 147.203L87.0426 150.152L73.902 146.853L84.1394 154.198L81.4635 157.928Z" fill="white"/>
<path d="M103.624 129.614L88.793 109.825L92.9239 105.309L113.911 118.369L110.57 122.021L106.238 119.156L103.828 121.79L107.046 125.873L103.624 129.614ZM101.784 119.269L103.525 117.366L95.6599 111.919L101.784 119.269Z" fill="white"/>
<path d="M134.746 99.4643C133.594 100.457 132.456 101.081 131.331 101.338C130.205 101.595 129.08 101.469 127.955 100.96C126.817 100.436 125.638 99.5115 124.417 98.1871L127.444 94.668C128.138 95.4428 128.754 96.0203 129.293 96.4007C129.848 96.768 130.33 96.9597 130.74 96.976C131.165 96.9792 131.544 96.8372 131.878 96.5499C132.302 96.1844 132.45 95.8054 132.324 95.4131C132.212 95.0077 132.019 94.646 131.745 94.3278C131.092 93.5703 130.362 93.0907 129.554 92.8889C128.734 92.672 127.784 92.5661 126.706 92.5712L123.921 92.5558C122.715 92.5656 121.549 92.4082 120.425 92.0836C119.302 91.7309 118.264 91.0015 117.311 89.8955C115.966 88.3351 115.404 86.7475 115.623 85.133C115.829 83.5033 116.727 82.003 118.318 80.632C119.303 79.7834 120.234 79.2711 121.112 79.0952C122.005 78.9062 122.839 78.9539 123.612 79.2382C124.387 79.4943 125.088 79.8796 125.717 80.3942C126.347 80.8806 126.905 81.39 127.39 81.9223L124.263 85.3702C123.777 84.8378 123.335 84.4008 122.935 84.0591C122.537 83.6892 122.163 83.47 121.814 83.4016C121.451 83.3179 121.096 83.4263 120.747 83.7266C120.368 84.053 120.225 84.4536 120.318 84.9284C120.425 85.3902 120.616 85.7802 120.89 86.0983C121.478 86.7801 122.12 87.2036 122.817 87.3687C123.516 87.5057 124.332 87.5805 125.268 87.5932L127.946 87.6218C129.336 87.6116 130.676 87.8032 131.966 88.1968C133.271 88.5772 134.471 89.4038 135.568 90.6764C136.312 91.54 136.794 92.4975 137.014 93.549C137.221 94.5854 137.137 95.6215 136.762 96.6573C136.402 97.68 135.73 98.6157 134.746 99.4643ZM115.248 81.2976L109.586 78.7714L112.222 76.4995L115.535 78.0005L114.54 74.5019L117.176 72.2301L118.839 78.2032L115.248 81.2976Z" fill="white"/>
<path d="M191.134 60.4598L180.038 38.8411L189.379 34.0465L191.037 37.276L186.473 39.6185L189.267 45.0632L193.244 43.022L194.957 46.3583L190.98 48.3994L195.911 58.0077L191.134 60.4598Z" fill="white"/>
<path d="M226.639 44.3415L218.178 21.5622L223.212 19.6924L231.673 42.4717L226.639 44.3415Z" fill="white"/>
<path d="M261.533 33.3299L255.826 9.70979L261.045 8.44845L265.901 28.5402L271.324 27.2295L272.177 30.7579L261.533 33.3299Z" fill="white"/>
<path d="M293.885 26.9058L291.428 2.72669L297.147 2.04544L301.47 15.7605L302.658 1.38902L308.169 0.732605L311.46 24.8124L307.677 25.263L305.318 9.25971L304.43 25.6497L301.064 26.0507L296.158 10.2298L297.727 26.4481L293.885 26.9058Z" fill="white"/>
<path d="M369.925 25.4996L372.799 1.37018L376.553 1.81725L380.114 14.0241L381.498 2.40625L385.907 2.93138L383.033 27.0608L379.428 26.6315L375.973 13.5309L374.483 26.0425L369.925 25.4996Z" fill="white"/>
<path d="M405.42 31.2367L415.589 8.6947L421.538 10.1322L420.234 34.8164L415.422 33.6537L415.84 28.477L412.37 27.6384L410.348 32.4276L405.42 31.2367ZM413.59 24.631L416.098 25.237L417.071 15.7192L413.59 24.631Z" fill="white"/>
<path d="M446.848 43.935C445.423 43.4057 444.327 42.7104 443.558 41.849C442.79 40.9876 442.358 39.9415 442.26 38.7105C442.17 37.4608 442.41 35.9818 442.98 34.2735L447.523 35.225C447.18 36.2068 446.972 37.0256 446.899 37.6813C446.845 38.3439 446.909 38.8587 447.093 39.2256C447.296 39.5995 447.603 39.8631 448.016 40.0163C448.541 40.2113 448.944 40.1585 449.226 39.858C449.527 39.5645 449.751 39.2208 449.897 38.8271C450.246 37.8897 450.313 37.0187 450.1 36.2141C449.894 35.3908 449.528 34.5083 449.003 33.5666L447.672 31.1199C447.081 30.0683 446.656 28.9718 446.397 27.8303C446.164 26.677 446.302 25.416 446.811 24.0474C447.528 22.1163 448.646 20.8569 450.166 20.2693C451.693 19.663 453.44 19.7254 455.409 20.4566C456.628 20.9093 457.526 21.4777 458.104 22.1617C458.701 22.8527 459.061 23.6054 459.185 24.4196C459.335 25.222 459.337 26.0226 459.189 26.8213C459.068 27.6082 458.891 28.3426 458.659 29.0245L454.13 27.9501C454.362 27.2682 454.531 26.6696 454.637 26.1543C454.768 25.6272 454.78 25.1941 454.671 24.855C454.569 24.4972 454.303 24.2382 453.872 24.078C453.403 23.9039 452.983 23.9719 452.612 24.2821C452.259 24.5992 452.01 24.9546 451.864 25.3483C451.55 26.192 451.49 26.9588 451.681 27.6488C451.899 28.3269 452.228 29.0785 452.668 29.9034L453.936 32.2625C454.616 33.4753 455.095 34.7414 455.373 36.0607C455.67 37.3871 455.526 38.8377 454.941 40.4125C454.544 41.4812 453.938 42.3656 453.123 43.0657C452.316 43.747 451.368 44.1737 450.28 44.3456C449.211 44.5245 448.067 44.3876 446.848 43.935ZM453.344 18.0895L452.823 11.9113L456.085 13.123L456.37 16.7493L458.953 14.1885L462.216 15.4003L457.787 19.7399L453.344 18.0895Z" fill="white"/>
<path d="M508.229 74.4852L521.805 54.3306L530.513 60.1964L528.485 63.2072L524.231 60.3413L520.812 65.4173L524.519 67.9144L522.424 71.0247L518.717 68.5275L512.683 77.4851L508.229 74.4852Z" fill="white"/>
<path d="M539.486 97.7966L555.35 79.3891L559.418 82.8948L543.554 101.302L539.486 97.7966Z" fill="white"/>
<path d="M565.976 123.038L583.906 106.636L587.53 110.598L572.279 124.55L576.046 128.667L573.367 131.118L565.976 123.038Z" fill="white"/>
<path d="M587.221 148.268L607.209 134.443L610.567 139.123L600.643 149.53L613.803 143.632L617.038 148.141L597.54 162.649L595.319 159.553L608.194 149.761L593.412 156.897L591.436 154.142L602.922 142.208L589.477 151.412L587.221 148.268Z" fill="white"/>
<path d="M625.164 214.181L647.683 205.048L649.103 208.551L640.133 217.563L650.975 213.166L652.644 217.28L630.125 226.413L628.761 223.049L638.566 213.699L626.889 218.434L625.164 214.181Z" fill="white"/>
<path d="M637.277 248.034L661.927 246.057L663.54 251.96L641.294 262.735L639.989 257.96L644.724 255.827L643.783 252.383L638.613 252.925L637.277 248.034ZM647.006 252L647.686 254.489L656.491 250.746L647.006 252Z" fill="white"/>
<path d="M646.158 290.445C645.933 288.942 646.013 287.646 646.396 286.557C646.78 285.469 647.487 284.584 648.518 283.905C649.569 283.222 650.98 282.718 652.751 282.393L654.111 286.831C653.086 287.004 652.268 287.217 651.659 287.47C651.052 287.743 650.633 288.048 650.4 288.386C650.17 288.744 650.088 289.14 650.153 289.575C650.236 290.129 650.477 290.457 650.876 290.559C651.279 290.681 651.688 290.711 652.103 290.649C653.092 290.502 653.887 290.14 654.489 289.565C655.111 288.987 655.707 288.241 656.278 287.326L657.778 284.979C658.414 283.954 659.169 283.053 660.044 282.275C660.941 281.514 662.112 281.026 663.556 280.811C665.593 280.506 667.236 280.878 668.484 281.925C669.753 282.969 670.542 284.53 670.852 286.607C671.044 287.893 670.98 288.954 670.66 289.79C670.342 290.646 669.857 291.325 669.204 291.827C668.574 292.346 667.874 292.734 667.103 292.99C666.355 293.264 665.627 293.463 664.918 293.59L663.672 289.104C664.381 288.978 664.987 288.837 665.489 288.681C666.014 288.542 666.399 288.343 666.644 288.084C666.908 287.822 667.006 287.464 666.938 287.009C666.864 286.515 666.602 286.18 666.151 286.004C665.703 285.849 665.272 285.802 664.856 285.864C663.966 285.997 663.265 286.314 662.754 286.815C662.265 287.333 661.765 287.983 661.255 288.767L659.802 291.017C659.068 292.198 658.191 293.229 657.169 294.109C656.151 295.009 654.811 295.584 653.15 295.832C652.022 296 650.955 295.896 649.949 295.521C648.962 295.142 648.131 294.518 647.455 293.648C646.782 292.798 646.35 291.731 646.158 290.445ZM671.928 283.656L677.086 280.216L677.6 283.658L674.562 285.659L678.052 286.685L678.566 290.126L672.628 288.344L671.928 283.656Z" fill="white"/>
<path d="M649.038 358.948L673.242 361.106L672.31 371.564L668.694 371.242L669.15 366.132L663.054 365.589L662.657 370.041L658.922 369.708L659.319 365.256L648.561 364.297L649.038 358.948Z" fill="white"/>
<path d="M643.714 397.576L667.493 402.581L666.387 407.836L642.608 402.83L643.714 397.576Z" fill="white"/>
<path d="M634.398 432.96L657.418 440.743L655.698 445.83L636.117 439.21L634.33 444.496L630.891 443.333L634.398 432.96Z" fill="white"/>
<path d="M622.56 463.746L644.318 474.575L641.841 479.775L627.936 476.109L639.454 484.786L637.067 489.797L614.948 479.725L616.587 476.285L631.379 482.833L617.993 473.333L619.451 470.273L635.448 474.57L620.896 467.239L622.56 463.746Z" fill="white"/>
<path d="M583.157 528.796L602.027 544.107L599.645 547.042L587.422 543.537L596.507 550.909L593.71 554.357L574.84 539.046L577.127 536.227L590.049 540.299L580.265 532.36L583.157 528.796Z" fill="white"/>
<path d="M559.358 555.748L572.991 576.38L568.6 580.643L548.423 566.363L551.975 562.915L556.129 566.032L558.691 563.545L555.72 559.279L559.358 555.748ZM560.582 566.183L558.731 567.98L566.26 573.883L560.582 566.183Z" fill="white"/>
<path d="M526.505 584C527.714 583.078 528.887 582.522 530.025 582.332C531.164 582.142 532.279 582.335 533.372 582.91C534.477 583.5 535.6 584.493 536.74 585.887L533.51 589.221C532.863 588.406 532.282 587.793 531.766 587.382C531.235 586.982 530.765 586.762 530.357 586.722C529.932 586.693 529.546 586.812 529.196 587.079C528.751 587.419 528.58 587.789 528.683 588.188C528.771 588.599 528.942 588.972 529.197 589.306C529.804 590.1 530.504 590.622 531.298 590.872C532.104 591.137 533.046 591.299 534.122 591.358L536.902 591.538C538.107 591.6 539.261 591.826 540.364 592.216C541.464 592.635 542.456 593.425 543.342 594.585C544.592 596.222 545.06 597.841 544.746 599.439C544.443 601.054 543.458 602.498 541.789 603.773C540.755 604.561 539.795 605.018 538.908 605.141C538.005 605.277 537.176 605.18 536.422 604.85C535.663 604.549 534.985 604.123 534.389 603.572C533.788 603.049 533.261 602.507 532.809 601.947L536.135 598.691C536.588 599.251 537.004 599.713 537.383 600.078C537.758 600.471 538.118 600.712 538.463 600.801C538.82 600.906 539.181 600.819 539.547 600.54C539.944 600.236 540.111 599.845 540.047 599.365C539.967 598.898 539.8 598.497 539.545 598.164C538.999 597.448 538.383 596.987 537.697 596.781C537.007 596.603 536.196 596.48 535.264 596.412L532.592 596.225C531.203 596.153 529.877 595.882 528.613 595.413C527.333 594.956 526.183 594.059 525.164 592.724C524.472 591.818 524.048 590.834 523.891 589.771C523.746 588.724 523.891 587.695 524.326 586.683C524.746 585.683 525.472 584.789 526.505 584ZM544.893 603.29L550.395 606.147L547.629 608.259L544.41 606.564L545.197 610.116L542.431 612.227L541.125 606.166L544.893 603.29Z" fill="white"/>
<path d="M467.905 619.596L477.701 641.834L468.092 646.067L466.629 642.745L471.324 640.677L468.857 635.076L464.766 636.878L463.254 633.446L467.345 631.644L462.991 621.76L467.905 619.596Z" fill="white"/>
<path d="M431.508 633.582L438.605 656.823L433.469 658.391L426.372 635.151L431.508 633.582Z" fill="white"/>
<path d="M396.022 642.508L400.321 666.424L395.035 667.374L391.379 647.03L385.887 648.017L385.245 644.444L396.022 642.508Z" fill="white"/>
<path d="M363.347 647.004L364.368 671.286L358.618 671.627L355.115 657.68L353.078 671.956L347.537 672.285L345.678 648.052L349.482 647.827L350.889 663.942L352.746 647.633L356.13 647.432L360.09 663.516L359.484 647.233L363.347 647.004Z" fill="white"/>
</svg>
