
<svg width="378" height="373" viewBox="0 0 378 373" fill="none" xmlns="http://www.w3.org/2000/svg">
<path d="M190.108 348V372.3H186.328L181.348 360.6V372.3H176.908V348H180.538L185.518 360.6V348H190.108Z" fill="#474747"/>
<path d="M159.433 346.473L150.191 369.41L144.188 368.217L144.486 343.5L149.341 344.465L149.134 349.655L152.636 350.351L154.46 345.484L159.433 346.473ZM151.539 353.406L149.008 352.903L148.424 362.452L151.539 353.406Z" fill="#474747"/>
<path d="M122.147 335.421C123.551 336.003 124.621 336.738 125.357 337.628C126.093 338.517 126.487 339.578 126.538 340.812C126.583 342.064 126.288 343.533 125.655 345.219L121.15 344.1C121.529 343.132 121.768 342.321 121.865 341.669C121.943 341.009 121.898 340.492 121.728 340.118C121.539 339.737 121.242 339.462 120.835 339.294C120.318 339.08 119.913 339.118 119.619 339.407C119.308 339.69 119.071 340.025 118.911 340.413C118.528 341.337 118.428 342.204 118.611 343.016C118.787 343.847 119.12 344.742 119.609 345.703L120.849 348.197C121.401 349.27 121.785 350.381 122.001 351.532C122.191 352.693 122.007 353.948 121.448 355.297C120.66 357.2 119.495 358.417 117.955 358.948C116.407 359.497 114.663 359.37 112.722 358.566C111.521 358.069 110.645 357.468 110.093 356.763C109.522 356.05 109.189 355.285 109.095 354.466C108.975 353.659 109.004 352.859 109.18 352.066C109.331 351.284 109.535 350.557 109.792 349.884L114.278 351.125C114.021 351.798 113.83 352.39 113.705 352.901C113.554 353.423 113.526 353.856 113.623 354.198C113.711 354.56 113.968 354.828 114.393 355.004C114.855 355.196 115.277 355.143 115.659 354.847C116.023 354.543 116.286 354.197 116.446 353.809C116.791 352.978 116.88 352.214 116.714 351.517C116.522 350.832 116.221 350.068 115.811 349.228L114.632 346.823C113.997 345.586 113.565 344.303 113.336 342.974C113.089 341.638 113.286 340.194 113.929 338.642C114.365 337.588 115.004 336.727 115.844 336.058C116.676 335.407 117.639 335.015 118.733 334.884C119.808 334.745 120.946 334.924 122.147 335.421ZM114.698 361.008L114.991 367.202L111.775 365.87L111.625 362.236L108.948 364.699L105.733 363.367L110.319 359.195L114.698 361.008Z" fill="#474747"/>
<path d="M73.4015 304.251L56.2188 321.434L48.7941 314.009L51.3609 311.442L54.9884 315.07L59.3159 310.742L56.1551 307.581L58.8068 304.93L61.9675 308.091L69.6043 300.454L73.4015 304.251Z" fill="#474747"/>
<path d="M51.4641 278.661L31.2593 292.162L28.2759 287.697L48.4806 274.196L51.4641 278.661Z" fill="#474747"/>
<path d="M36.5482 252.134L14.0979 261.433L12.0429 256.472L31.1395 248.562L29.0041 243.406L32.3578 242.017L36.5482 252.134Z" fill="#474747"/>
<path d="M27.3905 225.961L3.47544 230.29L2.35172 224.641L15.6893 219.266L1.26897 219.197L0.186218 213.754L23.9374 208.601L24.6807 212.338L8.90915 215.934L25.3186 215.545L25.98 218.87L10.5882 224.991L26.6355 222.166L27.3905 225.961Z" fill="#474747"/>
<path d="M16.2879 157.142L13.2278 156.533L14.7437 148.912L17.8037 149.521L16.2879 157.142Z" fill="#474747"/>
<path d="M46.8048 101.578L26.6001 88.0775L28.7001 84.9346L41.1951 87.294L31.4669 80.7938L33.9336 77.1021L54.1383 90.6025L52.1216 93.6207L38.8783 90.7612L49.3549 97.7614L46.8048 101.578Z" fill="#474747"/>
<path d="M65.3176 77.0988L51.3806 56.6705L55.7081 52.343L76.094 66.3225L72.5938 69.8227L68.3936 66.768L65.8692 69.2924L68.9027 73.5138L65.3176 77.0988ZM63.9388 66.6831L65.7631 64.8588L58.1476 59.0676L63.9388 66.6831Z" fill="#474747"/>
<path d="M95.2217 52.2367C93.9579 53.0811 92.7519 53.5622 91.6038 53.6799C90.4557 53.7976 89.3543 53.5352 88.2997 52.8929C87.234 52.2339 86.1762 51.1728 85.1263 49.7095L88.5594 46.5857C89.1538 47.4393 89.6953 48.0877 90.1839 48.531C90.6892 48.9631 91.1443 49.2123 91.5493 49.2784C91.9709 49.3334 92.3646 49.2387 92.7305 48.9943C93.1961 48.6831 93.3899 48.3252 93.3118 47.9203C93.2503 47.5043 93.103 47.1218 92.8696 46.7725C92.314 45.9411 91.6478 45.376 90.8709 45.0772C90.0829 44.7619 89.1536 44.541 88.0829 44.4145L85.3201 44.0596C84.1218 43.9222 82.9843 43.6239 81.9077 43.1646C80.8366 42.6776 79.8955 41.8271 79.0844 40.6131C77.9399 38.9003 77.5749 37.256 77.9893 35.6802C78.3925 34.0878 79.4672 32.7083 81.2133 31.5416C82.2942 30.8193 83.2812 30.4245 84.1741 30.357C85.0838 30.2783 85.9049 30.4273 86.6375 30.8037C87.3756 31.1524 88.0251 31.6204 88.586 32.2078C89.1523 32.7675 89.6438 33.3411 90.0605 33.9286L86.5358 36.9693C86.1191 36.3817 85.7331 35.894 85.3777 35.5061C85.0278 35.0904 84.6836 34.8273 84.3451 34.7167C83.9955 34.5895 83.6295 34.6537 83.247 34.9092C82.8313 35.187 82.6403 35.5672 82.6741 36.0497C82.7245 36.5212 82.8664 36.9315 83.0997 37.2807C83.5997 38.0291 84.1855 38.5277 84.8569 38.7766C85.5339 38.9978 86.3356 39.1717 87.2621 39.2983L89.9167 39.6533C91.2981 39.8127 92.6048 40.1663 93.8368 40.7142C95.0854 41.251 96.1764 42.2178 97.1098 43.6146C97.7431 44.5625 98.1047 45.5717 98.1946 46.6422C98.2734 47.696 98.0636 48.7141 97.5654 49.6964C97.0839 50.6677 96.3026 51.5144 95.2217 52.2367ZM78.0851 31.8277L72.7732 28.6299L75.6668 26.6965L78.7723 28.5903L78.2111 24.9965L81.1046 23.0631L82.0262 29.1943L78.0851 31.8277Z" fill="#474747"/>
<path d="M148.221 29.0235L143.48 5.19039L153.778 3.14194L154.486 6.7022L149.455 7.70301L150.649 13.7054L155.033 12.8334L155.764 16.5113L151.38 17.3834L153.487 27.9758L148.221 29.0235Z" fill="#474747"/>
<path d="M181.818 25V0.700012H187.188V25H181.818Z" fill="#474747"/>
<path d="M212.029 27.3357L216.77 3.50265L222.037 4.55028L218.004 24.8231L223.477 25.9117L222.769 29.472L212.029 27.3357Z" fill="#474747"/>
<path d="M238.878 34.262L248.566 11.9724L253.887 14.1767L250.947 28.2529L259.015 16.3006L264.142 18.4245L255.231 41.0355L251.711 39.5774L257.483 24.4661L248.69 38.3261L245.558 37.0288L249.02 20.8307L242.454 35.743L238.878 34.262Z" fill="#474747"/>
<path d="M302.268 63.2647L304.474 61.0585L309.968 66.5527L307.762 68.7589L302.268 63.2647Z" fill="#474747"/>
<path d="M331.513 119.508L353.964 110.209L355.41 113.701L346.507 122.78L357.316 118.302L359.015 122.404L336.565 131.703L335.176 128.35L344.911 118.927L333.27 123.749L331.513 119.508Z" fill="#474747"/>
<path d="M341.582 148.501L366.31 148.262L367.504 154.264L344.555 163.448L343.589 158.593L348.462 156.798L347.766 153.297L342.571 153.474L341.582 148.501ZM351.008 153.141L351.511 155.672L360.557 152.557L351.008 153.141Z" fill="#474747"/>
<path d="M345.64 187.545C345.64 186.025 345.91 184.755 346.45 183.735C346.99 182.715 347.82 181.945 348.94 181.425C350.08 180.905 351.55 180.615 353.35 180.555L354.04 185.145C353 185.165 352.16 185.255 351.52 185.415C350.88 185.595 350.42 185.835 350.14 186.135C349.86 186.455 349.72 186.835 349.72 187.275C349.72 187.835 349.91 188.195 350.29 188.355C350.67 188.535 351.07 188.625 351.49 188.625C352.49 188.625 353.33 188.385 354.01 187.905C354.71 187.425 355.41 186.775 356.11 185.955L357.94 183.855C358.72 182.935 359.6 182.155 360.58 181.515C361.58 180.895 362.81 180.585 364.27 180.585C366.33 180.585 367.9 181.195 368.98 182.415C370.08 183.635 370.63 185.295 370.63 187.395C370.63 188.695 370.41 189.735 369.97 190.515C369.53 191.315 368.95 191.915 368.23 192.315C367.53 192.735 366.78 193.015 365.98 193.155C365.2 193.315 364.45 193.405 363.73 193.425L363.16 188.805C363.88 188.785 364.5 188.735 365.02 188.655C365.56 188.595 365.97 188.455 366.25 188.235C366.55 188.015 366.7 187.675 366.7 187.215C366.7 186.715 366.49 186.345 366.07 186.105C365.65 185.885 365.23 185.775 364.81 185.775C363.91 185.775 363.17 185.985 362.59 186.405C362.03 186.845 361.44 187.415 360.82 188.115L359.05 190.125C358.15 191.185 357.13 192.075 355.99 192.795C354.85 193.535 353.44 193.905 351.76 193.905C350.62 193.905 349.58 193.645 348.64 193.125C347.72 192.605 346.99 191.865 346.45 190.905C345.91 189.965 345.64 188.845 345.64 187.545ZM372.13 184.635L377.74 181.995V185.475L374.44 187.005L377.74 188.535V192.015L372.13 189.375V184.635Z" fill="#474747"/>
<path d="M335.497 244.141L357.947 253.441L353.929 263.141L350.575 261.752L352.538 257.013L346.884 254.671L345.173 258.8L341.709 257.365L343.419 253.236L333.442 249.103L335.497 244.141Z" fill="#474747"/>
<path d="M320.25 274.202L340.455 287.702L337.471 292.167L317.267 278.667L320.25 274.202Z" fill="#474747"/>
<path d="M301.45 298.134L318.632 315.317L314.835 319.114L300.219 304.498L296.274 308.443L293.707 305.877L301.45 298.134Z" fill="#474747"/>
<path d="M280.774 316.61L293.925 337.048L289.136 340.248L279.066 329.983L284.521 343.332L279.907 346.415L266.057 326.444L269.225 324.327L278.583 337.522L271.944 322.51L274.763 320.627L286.307 332.505L277.556 318.76L280.774 316.61Z" fill="#474747"/>
<path d="M221.442 353.204L222.051 356.264L214.43 357.78L213.821 354.719L221.442 353.204Z" fill="#474747"/>
</svg>
